<mxfile host="app.diagrams.net" modified="2024-01-29T06:26:38.144Z" agent="Mozilla/5.0 (Windows NT 10.0; Win64; x64) AppleWebKit/537.36 (KHTML, like Gecko) Chrome/121.0.0.0 Safari/537.36" version="23.0.2" etag="PTPMJk4LYu7JvhVRfusY" type="github">
  <diagram name="Page-1" id="Djc_ISMuUBjoxd05g97Y">
    <mxGraphModel>
      <root>
        <mxCell id="0" />
        <mxCell id="1" parent="0" />
      </root>
    </mxGraphModel>
  </diagram>
</mxfile>
